<svg xmlns="http://www.w3.org/2000/svg" xmlns:xlink="http://www.w3.org/1999/xlink" width="1920" zoomAndPan="magnify" viewBox="0 0 1440 2430.000006" height="3240" preserveAspectRatio="xMidYMid meet" version="1.0"><defs><g/><clipPath id="99d0c90980"><path d="M 730.078125 399.898438 L 776.953125 399.898438 L 776.953125 446.734375 L 730.078125 446.734375 Z M 730.078125 399.898438 " clip-rule="nonzero"/></clipPath><clipPath id="cfd3222e6b"><path d="M 583.660156 399.898438 L 630.484375 399.898438 L 630.484375 446.734375 L 583.660156 446.734375 Z M 583.660156 399.898438 " clip-rule="nonzero"/></clipPath><clipPath id="36b2d3eca7"><path d="M 730 482 L 777 482 L 777 529.59375 L 730 529.59375 Z M 730 482 " clip-rule="nonzero"/></clipPath><clipPath id="8a54ad5778"><path d="M 583.660156 482.769531 L 630.484375 482.769531 L 630.484375 529.59375 L 583.660156 529.59375 Z M 583.660156 482.769531 " clip-rule="nonzero"/></clipPath><clipPath id="9b790895c0"><path d="M 638 320.144531 L 723 320.144531 L 723 507 L 638 507 Z M 638 320.144531 " clip-rule="nonzero"/></clipPath><clipPath id="0d2888e6f4"><path d="M 676 518 L 684 518 L 684 533.058594 L 676 533.058594 Z M 676 518 " clip-rule="nonzero"/></clipPath><clipPath id="d0e2c53bef"><path d="M 611.585938 461 L 627 461 L 627 469 L 611.585938 469 Z M 611.585938 461 " clip-rule="nonzero"/></clipPath><clipPath id="79bcfbc6ec"><path d="M 733 461 L 748.734375 461 L 748.734375 469 L 733 469 Z M 733 461 " clip-rule="nonzero"/></clipPath></defs><g clip-path="url(#99d0c90980)"><path fill="#000000" d="M 734.015625 399.894531 L 747.21875 399.894531 C 763.613281 399.894531 776.953125 413.214844 776.953125 429.59375 L 776.953125 442.785156 C 776.953125 444.925781 775.214844 446.660156 773.074219 446.660156 C 770.933594 446.660156 769.195312 444.925781 769.195312 442.785156 L 769.195312 429.59375 C 769.195312 417.488281 759.335938 407.640625 747.21875 407.640625 L 734.015625 407.640625 C 731.875 407.640625 730.136719 405.90625 730.136719 403.765625 C 730.136719 401.628906 731.875 399.894531 734.015625 399.894531 " fill-opacity="1" fill-rule="nonzero"/></g><g clip-path="url(#cfd3222e6b)"><path fill="#000000" d="M 613.390625 399.894531 L 626.597656 399.894531 C 628.738281 399.894531 630.476562 401.628906 630.476562 403.765625 C 630.476562 405.90625 628.738281 407.640625 626.597656 407.640625 L 613.390625 407.640625 C 601.273438 407.640625 591.417969 417.488281 591.417969 429.59375 L 591.417969 442.785156 C 591.417969 444.925781 589.679688 446.660156 587.539062 446.660156 C 585.398438 446.660156 583.660156 444.925781 583.660156 442.785156 L 583.660156 429.59375 C 583.660156 413.214844 597 399.894531 613.390625 399.894531 " fill-opacity="1" fill-rule="nonzero"/></g><g clip-path="url(#36b2d3eca7)"><path fill="#000000" d="M 773.074219 482.828125 C 775.214844 482.828125 776.953125 484.5625 776.953125 486.699219 L 776.953125 499.894531 C 776.953125 516.269531 763.613281 529.59375 747.21875 529.59375 L 734.015625 529.59375 C 731.875 529.59375 730.136719 527.859375 730.136719 525.71875 C 730.136719 523.582031 731.875 521.84375 734.015625 521.84375 L 747.21875 521.84375 C 759.335938 521.84375 769.195312 512 769.195312 499.894531 L 769.195312 486.699219 C 769.195312 484.5625 770.933594 482.828125 773.074219 482.828125 " fill-opacity="1" fill-rule="nonzero"/></g><g clip-path="url(#8a54ad5778)"><path fill="#000000" d="M 587.539062 482.828125 C 589.679688 482.828125 591.417969 484.5625 591.417969 486.699219 L 591.417969 499.894531 C 591.417969 512 601.273438 521.84375 613.390625 521.84375 L 626.597656 521.84375 C 628.738281 521.84375 630.476562 523.582031 630.476562 525.71875 C 630.476562 527.859375 628.738281 529.59375 626.597656 529.59375 L 613.390625 529.59375 C 597 529.59375 583.660156 516.269531 583.660156 499.894531 L 583.660156 486.699219 C 583.660156 484.5625 585.398438 482.828125 587.539062 482.828125 " fill-opacity="1" fill-rule="nonzero"/></g><path fill="#000000" d="M 680.304688 452.550781 C 686.140625 452.550781 691.03125 456.660156 692.230469 462.136719 L 697.484375 462.136719 C 696.222656 453.796875 689 447.382812 680.304688 447.382812 C 671.613281 447.382812 664.390625 453.796875 663.128906 462.136719 L 668.382812 462.136719 C 669.582031 456.660156 674.472656 452.550781 680.304688 452.550781 Z M 680.304688 476.9375 C 674.472656 476.9375 669.582031 472.824219 668.382812 467.347656 L 663.128906 467.347656 C 664.390625 475.6875 671.613281 482.101562 680.304688 482.101562 C 689 482.101562 696.222656 475.6875 697.484375 467.347656 L 692.230469 467.347656 C 691.03125 472.824219 686.140625 476.9375 680.304688 476.9375 " fill-opacity="1" fill-rule="nonzero"/><path fill="#000000" d="M 673.875 464.742188 C 673.875 463.816406 674.074219 462.933594 674.429688 462.136719 C 675.425781 459.886719 677.683594 458.320312 680.304688 458.320312 C 682.929688 458.320312 685.183594 459.886719 686.183594 462.136719 C 686.539062 462.933594 686.734375 463.816406 686.734375 464.742188 C 686.734375 465.671875 686.539062 466.554688 686.183594 467.347656 C 685.183594 469.597656 682.929688 471.167969 680.304688 471.167969 C 677.683594 471.167969 675.425781 469.597656 674.429688 467.347656 C 674.074219 466.554688 673.875 465.671875 673.875 464.742188 " fill-opacity="1" fill-rule="nonzero"/><path fill="#000000" d="M 680.214844 438.847656 C 665.964844 438.847656 654.371094 450.4375 654.371094 464.691406 C 654.371094 478.941406 665.960938 490.535156 680.214844 490.535156 C 694.464844 490.535156 706.058594 478.941406 706.058594 464.691406 C 706.058594 450.4375 694.464844 438.847656 680.214844 438.847656 Z M 680.214844 483.804688 C 669.675781 483.804688 661.101562 475.230469 661.101562 464.691406 C 661.101562 454.152344 669.675781 445.578125 680.214844 445.578125 C 690.753906 445.578125 699.328125 454.152344 699.328125 464.691406 C 699.328125 475.230469 690.753906 483.804688 680.214844 483.804688 Z M 680.214844 483.804688 " fill-opacity="1" fill-rule="nonzero"/><g clip-path="url(#9b790895c0)"><path fill="#000000" d="M 692.042969 320.285156 L 668.382812 320.285156 L 668.382812 424.234375 C 650.660156 429.425781 638.058594 446.019531 638.058594 464.691406 C 638.058594 487.933594 656.96875 506.839844 680.214844 506.839844 C 703.453125 506.839844 722.359375 487.933594 722.359375 464.691406 C 722.359375 446.019531 709.765625 429.425781 692.042969 424.234375 L 692.042969 376.382812 L 717.371094 376.382812 L 717.371094 355.546875 L 704.714844 355.546875 L 704.714844 348.175781 L 717.371094 348.175781 L 717.371094 327.34375 L 692.042969 327.34375 Z M 675.117188 327.019531 L 685.316406 327.019531 L 685.316406 334.074219 L 710.640625 334.074219 L 710.640625 341.445312 L 697.980469 341.445312 L 697.980469 362.277344 L 710.640625 362.277344 L 710.640625 369.648438 L 685.316406 369.648438 L 685.316406 429.535156 L 687.949219 430.125 C 703.988281 433.695312 715.628906 448.234375 715.628906 464.691406 C 715.628906 484.21875 699.742188 500.109375 680.214844 500.109375 C 660.683594 500.109375 644.792969 484.21875 644.792969 464.691406 C 644.792969 448.234375 656.4375 433.699219 672.484375 430.125 L 675.117188 429.535156 Z M 675.117188 327.019531 " fill-opacity="1" fill-rule="nonzero"/></g><g clip-path="url(#0d2888e6f4)"><path fill="#000000" d="M 676.847656 533.058594 L 683.578125 533.058594 L 683.578125 518.269531 L 676.847656 518.269531 Z M 676.847656 533.058594 " fill-opacity="1" fill-rule="nonzero"/></g><path fill="#000000" d="M 657.15625 529.144531 L 662.816406 515.476562 L 656.597656 512.902344 L 650.9375 526.570312 Z M 657.15625 529.144531 " fill-opacity="1" fill-rule="nonzero"/><path fill="#000000" d="M 634.246094 515.414062 L 644.707031 504.949219 L 639.945312 500.191406 L 629.484375 510.652344 Z M 634.246094 515.414062 " fill-opacity="1" fill-rule="nonzero"/><path fill="#000000" d="M 618.335938 493.960938 L 632.003906 488.300781 L 629.425781 482.082031 L 615.761719 487.742188 Z M 618.335938 493.960938 " fill-opacity="1" fill-rule="nonzero"/><g clip-path="url(#d0e2c53bef)"><path fill="#000000" d="M 611.84375 468.050781 L 626.632812 468.050781 L 626.632812 461.320312 L 611.84375 461.320312 Z M 611.84375 468.050781 " fill-opacity="1" fill-rule="nonzero"/></g><path fill="#000000" d="M 629.429688 447.289062 L 632.003906 441.070312 L 618.339844 435.410156 L 615.765625 441.632812 Z M 629.429688 447.289062 " fill-opacity="1" fill-rule="nonzero"/><path fill="#000000" d="M 639.941406 429.179688 L 644.703125 424.421875 L 634.246094 413.964844 L 629.484375 418.722656 Z M 639.941406 429.179688 " fill-opacity="1" fill-rule="nonzero"/><path fill="#000000" d="M 703.265625 529.144531 L 709.484375 526.570312 L 703.832031 512.90625 L 697.609375 515.480469 Z M 703.265625 529.144531 " fill-opacity="1" fill-rule="nonzero"/><path fill="#000000" d="M 726.171875 515.410156 L 730.933594 510.652344 L 720.46875 500.191406 L 715.710938 504.949219 Z M 726.171875 515.410156 " fill-opacity="1" fill-rule="nonzero"/><path fill="#000000" d="M 742.085938 493.964844 L 744.664062 487.746094 L 731 482.082031 L 728.421875 488.300781 Z M 742.085938 493.964844 " fill-opacity="1" fill-rule="nonzero"/><g clip-path="url(#79bcfbc6ec)"><path fill="#000000" d="M 733.789062 468.058594 L 748.582031 468.058594 L 748.582031 461.328125 L 733.789062 461.328125 Z M 733.789062 468.058594 " fill-opacity="1" fill-rule="nonzero"/></g><path fill="#000000" d="M 730.992188 447.292969 L 744.65625 441.632812 L 742.082031 435.414062 L 728.414062 441.074219 Z M 730.992188 447.292969 " fill-opacity="1" fill-rule="nonzero"/><path fill="#000000" d="M 720.476562 429.1875 L 730.9375 418.726562 L 726.179688 413.96875 L 715.71875 424.429688 Z M 720.476562 429.1875 " fill-opacity="1" fill-rule="nonzero"/><g fill="#000000" fill-opacity="1"><g transform="translate(546.704885, 578.605104)"><g><path d="M 23.25 -22.492188 C 22.96875 -24.171875 22.492188 -25.53125 22.050781 -26.613281 C 21.691406 -27.53125 21.050781 -28.011719 18.730469 -28.011719 L 3.441406 -28.011719 C 1.839844 -28.011719 1.199219 -27.734375 1.199219 -26.890625 C 1.199219 -25.210938 3.320312 -25.691406 3.722656 -23.089844 C 3.800781 -22.609375 3.839844 -22.128906 3.839844 -21.210938 L 3.839844 -6.722656 C 3.839844 -1.921875 1.199219 -3.082031 1.199219 -1.121094 C 1.199219 -0.320312 1.839844 0 3.441406 0 L 9.804688 0 C 11.445312 0 12.003906 -0.320312 12.003906 -1.121094 C 12.003906 -3.082031 9.484375 -1.921875 9.484375 -6.722656 L 9.484375 -11.003906 C 9.484375 -12.765625 10.445312 -12.964844 12.324219 -12.964844 L 14.125 -12.964844 C 16.726562 -12.964844 16.046875 -9.804688 17.648438 -9.804688 C 18.488281 -9.804688 18.769531 -10.445312 18.769531 -11.765625 L 18.769531 -16.449219 C 18.769531 -18.007812 18.488281 -18.570312 17.648438 -18.570312 C 16.046875 -18.570312 16.726562 -15.488281 14.125 -15.488281 L 12.324219 -15.488281 C 10.445312 -15.488281 9.484375 -15.726562 9.484375 -17.449219 L 9.484375 -23.691406 C 9.484375 -24.929688 10.042969 -25.492188 13.046875 -25.492188 L 14.886719 -25.492188 C 17.488281 -25.492188 19.167969 -24.210938 20.730469 -21.691406 C 21.410156 -20.648438 21.890625 -20.289062 22.652344 -20.53125 C 23.371094 -20.730469 23.449219 -21.410156 23.25 -22.492188 Z M 23.25 -22.492188 "/></g></g></g><g fill="#000000" fill-opacity="1"><g transform="translate(573.595305, 578.605104)"><g><path d="M 14.808594 0.398438 C 23.492188 0.398438 29.695312 -6.164062 29.695312 -14.808594 C 29.695312 -22.53125 24.53125 -28.414062 16.488281 -28.414062 C 7.921875 -28.414062 1.601562 -21.488281 1.601562 -12.925781 C 1.601562 -5.121094 7.203125 0.398438 14.808594 0.398438 Z M 16.886719 -2.761719 C 10.84375 -2.761719 7.125 -9.644531 7.125 -16.566406 C 7.125 -21.25 9.605469 -25.570312 14.605469 -25.570312 C 20.53125 -25.570312 24.171875 -18.527344 24.171875 -11.765625 C 24.171875 -6.84375 21.96875 -2.761719 16.886719 -2.761719 Z M 16.886719 -2.761719 "/></g></g></g><g fill="#000000" fill-opacity="1"><g transform="translate(608.168563, 578.605104)"><g><path d="M 15.808594 -23.570312 C 15.808594 -24.769531 16.367188 -25.371094 17.566406 -25.371094 C 20.210938 -25.371094 21.007812 -23.972656 22.410156 -21.210938 C 22.929688 -20.210938 23.332031 -19.730469 23.929688 -19.730469 C 24.769531 -19.730469 24.929688 -20.449219 24.890625 -21.488281 C 24.851562 -23.691406 24.613281 -25.210938 24.292969 -26.371094 C 24.011719 -27.53125 23.410156 -28.011719 20.96875 -28.011719 L 5.003906 -28.011719 C 2.5625 -28.011719 1.960938 -27.53125 1.640625 -26.332031 C 1.320312 -25.210938 1.121094 -23.691406 1.039062 -21.488281 C 1 -20.410156 1.199219 -19.730469 2.039062 -19.730469 C 2.640625 -19.730469 3.042969 -20.210938 3.523438 -21.210938 C 4.960938 -23.929688 5.722656 -25.332031 8.363281 -25.332031 C 9.644531 -25.332031 10.164062 -24.769531 10.164062 -23.570312 L 10.164062 -6.683594 C 10.164062 -1.921875 7.523438 -3.042969 7.523438 -1.121094 C 7.523438 -0.28125 8.164062 0 9.765625 0 L 16.128906 0 C 17.808594 0 18.367188 -0.28125 18.367188 -1.121094 C 18.367188 -3.042969 15.808594 -1.921875 15.808594 -6.683594 Z M 15.808594 -23.570312 "/></g></g></g><g fill="#000000" fill-opacity="1"><g transform="translate(637.299806, 578.605104)"><g><path d="M 14.808594 0.398438 C 23.492188 0.398438 29.695312 -6.164062 29.695312 -14.808594 C 29.695312 -22.53125 24.53125 -28.414062 16.488281 -28.414062 C 7.921875 -28.414062 1.601562 -21.488281 1.601562 -12.925781 C 1.601562 -5.121094 7.203125 0.398438 14.808594 0.398438 Z M 16.886719 -2.761719 C 10.84375 -2.761719 7.125 -9.644531 7.125 -16.566406 C 7.125 -21.25 9.605469 -25.570312 14.605469 -25.570312 C 20.53125 -25.570312 24.171875 -18.527344 24.171875 -11.765625 C 24.171875 -6.84375 21.96875 -2.761719 16.886719 -2.761719 Z M 16.886719 -2.761719 "/></g></g></g><g fill="#000000" fill-opacity="1"><g transform="translate(671.873067, 578.605104)"><g/></g></g><g fill="#000000" fill-opacity="1"><g transform="translate(683.077691, 578.605104)"><g><path d="M 23.25 -22.492188 C 22.96875 -24.171875 22.492188 -25.53125 22.050781 -26.613281 C 21.691406 -27.53125 21.050781 -28.011719 18.730469 -28.011719 L 3.441406 -28.011719 C 1.839844 -28.011719 1.199219 -27.734375 1.199219 -26.890625 C 1.199219 -25.210938 3.320312 -25.691406 3.722656 -23.089844 C 3.800781 -22.609375 3.839844 -22.128906 3.839844 -21.210938 L 3.839844 -6.722656 C 3.839844 -1.921875 1.199219 -3.082031 1.199219 -1.121094 C 1.199219 -0.320312 1.839844 0 3.441406 0 L 9.804688 0 C 11.445312 0 12.003906 -0.320312 12.003906 -1.121094 C 12.003906 -3.082031 9.484375 -1.921875 9.484375 -6.722656 L 9.484375 -11.003906 C 9.484375 -12.765625 10.445312 -12.964844 12.324219 -12.964844 L 14.125 -12.964844 C 16.726562 -12.964844 16.046875 -9.804688 17.648438 -9.804688 C 18.488281 -9.804688 18.769531 -10.445312 18.769531 -11.765625 L 18.769531 -16.449219 C 18.769531 -18.007812 18.488281 -18.570312 17.648438 -18.570312 C 16.046875 -18.570312 16.726562 -15.488281 14.125 -15.488281 L 12.324219 -15.488281 C 10.445312 -15.488281 9.484375 -15.726562 9.484375 -17.449219 L 9.484375 -23.691406 C 9.484375 -24.929688 10.042969 -25.492188 13.046875 -25.492188 L 14.886719 -25.492188 C 17.488281 -25.492188 19.167969 -24.210938 20.730469 -21.691406 C 21.410156 -20.648438 21.890625 -20.289062 22.652344 -20.53125 C 23.371094 -20.730469 23.449219 -21.410156 23.25 -22.492188 Z M 23.25 -22.492188 "/></g></g></g><g fill="#000000" fill-opacity="1"><g transform="translate(709.968113, 578.605104)"><g><path d="M 21.128906 -8.363281 C 20.488281 -8.523438 19.96875 -8.203125 19.328125 -6.84375 C 18.007812 -4.042969 17.167969 -2.5625 14.367188 -2.5625 L 12.566406 -2.519531 C 10.042969 -2.519531 9.484375 -3.082031 9.484375 -4.363281 L 9.484375 -21.328125 C 9.484375 -26.09375 12.085938 -24.972656 12.085938 -26.890625 C 12.085938 -27.734375 11.445312 -28.011719 9.882812 -28.011719 L 3.523438 -28.011719 C 1.839844 -28.011719 1.28125 -27.734375 1.28125 -26.890625 C 1.28125 -24.972656 3.839844 -26.09375 3.839844 -21.328125 L 3.839844 -6.804688 C 3.839844 -5.882812 3.800781 -5.402344 3.722656 -4.921875 C 3.320312 -2.359375 1.199219 -2.800781 1.199219 -1.121094 C 1.199219 -0.28125 1.839844 0 3.441406 0 L 18.007812 0 C 20.449219 0 21.050781 -0.480469 21.371094 -1.679688 C 21.691406 -2.800781 21.890625 -4.320312 21.96875 -6.523438 C 22.011719 -7.605469 21.96875 -8.203125 21.128906 -8.363281 Z M 21.128906 -8.363281 "/></g></g></g><g fill="#000000" fill-opacity="1"><g transform="translate(736.138266, 578.605104)"><g><path d="M 22.691406 -8.363281 C 22.050781 -8.523438 21.53125 -8.203125 20.890625 -6.84375 C 19.570312 -4.042969 18.730469 -2.5625 15.925781 -2.5625 L 13.285156 -2.519531 C 10.042969 -2.519531 9.484375 -3.082031 9.484375 -4.402344 L 9.484375 -11.683594 C 9.484375 -13.40625 10.445312 -13.644531 12.324219 -13.644531 L 13.445312 -13.644531 C 16.046875 -13.644531 15.367188 -10.484375 16.96875 -10.484375 C 17.808594 -10.484375 18.089844 -11.125 18.089844 -12.445312 L 18.089844 -17.128906 C 18.089844 -18.6875 17.808594 -19.25 16.96875 -19.25 C 15.367188 -19.25 16.046875 -16.128906 13.445312 -16.128906 L 12.324219 -16.128906 C 10.445312 -16.128906 9.484375 -16.40625 9.484375 -18.089844 L 9.484375 -23.652344 C 9.484375 -24.929688 10.042969 -25.492188 13.046875 -25.492188 L 14.925781 -25.492188 C 17.566406 -25.492188 19.25 -24.210938 20.808594 -21.691406 C 21.449219 -20.648438 21.929688 -20.289062 22.691406 -20.53125 C 23.410156 -20.730469 23.492188 -21.410156 23.289062 -22.492188 C 23.011719 -24.171875 22.570312 -25.53125 22.089844 -26.613281 C 21.730469 -27.53125 21.089844 -28.011719 18.769531 -28.011719 L 3.441406 -28.011719 C 1.839844 -28.011719 1.199219 -27.734375 1.199219 -26.890625 C 1.199219 -25.210938 3.320312 -25.691406 3.722656 -23.089844 C 3.800781 -22.609375 3.839844 -22.128906 3.839844 -21.210938 L 3.839844 -6.804688 C 3.839844 -5.882812 3.800781 -5.402344 3.722656 -4.921875 C 3.320312 -2.359375 1.199219 -2.800781 1.199219 -1.121094 C 1.199219 -0.28125 1.839844 0 3.441406 0 L 19.570312 0 C 22.011719 0 22.609375 -0.480469 22.929688 -1.679688 C 23.25 -2.800781 23.449219 -4.320312 23.53125 -6.523438 C 23.570312 -7.605469 23.53125 -8.203125 22.691406 -8.363281 Z M 22.691406 -8.363281 "/></g></g></g><g fill="#000000" fill-opacity="1"><g transform="translate(764.269129, 578.605104)"><g><path d="M 22.691406 -8.363281 C 22.050781 -8.523438 21.53125 -8.203125 20.890625 -6.84375 C 19.570312 -4.042969 18.730469 -2.5625 15.925781 -2.5625 L 13.285156 -2.519531 C 10.042969 -2.519531 9.484375 -3.082031 9.484375 -4.402344 L 9.484375 -11.683594 C 9.484375 -13.40625 10.445312 -13.644531 12.324219 -13.644531 L 13.445312 -13.644531 C 16.046875 -13.644531 15.367188 -10.484375 16.96875 -10.484375 C 17.808594 -10.484375 18.089844 -11.125 18.089844 -12.445312 L 18.089844 -17.128906 C 18.089844 -18.6875 17.808594 -19.25 16.96875 -19.25 C 15.367188 -19.25 16.046875 -16.128906 13.445312 -16.128906 L 12.324219 -16.128906 C 10.445312 -16.128906 9.484375 -16.40625 9.484375 -18.089844 L 9.484375 -23.652344 C 9.484375 -24.929688 10.042969 -25.492188 13.046875 -25.492188 L 14.925781 -25.492188 C 17.566406 -25.492188 19.25 -24.210938 20.808594 -21.691406 C 21.449219 -20.648438 21.929688 -20.289062 22.691406 -20.53125 C 23.410156 -20.730469 23.492188 -21.410156 23.289062 -22.492188 C 23.011719 -24.171875 22.570312 -25.53125 22.089844 -26.613281 C 21.730469 -27.53125 21.089844 -28.011719 18.769531 -28.011719 L 3.441406 -28.011719 C 1.839844 -28.011719 1.199219 -27.734375 1.199219 -26.890625 C 1.199219 -25.210938 3.320312 -25.691406 3.722656 -23.089844 C 3.800781 -22.609375 3.839844 -22.128906 3.839844 -21.210938 L 3.839844 -6.804688 C 3.839844 -5.882812 3.800781 -5.402344 3.722656 -4.921875 C 3.320312 -2.359375 1.199219 -2.800781 1.199219 -1.121094 C 1.199219 -0.28125 1.839844 0 3.441406 0 L 19.570312 0 C 22.011719 0 22.609375 -0.480469 22.929688 -1.679688 C 23.25 -2.800781 23.449219 -4.320312 23.53125 -6.523438 C 23.570312 -7.605469 23.53125 -8.203125 22.691406 -8.363281 Z M 22.691406 -8.363281 "/></g></g></g><g fill="#000000" fill-opacity="1"><g transform="translate(792.399992, 578.605104)"><g><path d="M 15.808594 -23.570312 C 15.808594 -24.769531 16.367188 -25.371094 17.566406 -25.371094 C 20.210938 -25.371094 21.007812 -23.972656 22.410156 -21.210938 C 22.929688 -20.210938 23.332031 -19.730469 23.929688 -19.730469 C 24.769531 -19.730469 24.929688 -20.449219 24.890625 -21.488281 C 24.851562 -23.691406 24.613281 -25.210938 24.292969 -26.371094 C 24.011719 -27.53125 23.410156 -28.011719 20.96875 -28.011719 L 5.003906 -28.011719 C 2.5625 -28.011719 1.960938 -27.53125 1.640625 -26.332031 C 1.320312 -25.210938 1.121094 -23.691406 1.039062 -21.488281 C 1 -20.410156 1.199219 -19.730469 2.039062 -19.730469 C 2.640625 -19.730469 3.042969 -20.210938 3.523438 -21.210938 C 4.960938 -23.929688 5.722656 -25.332031 8.363281 -25.332031 C 9.644531 -25.332031 10.164062 -24.769531 10.164062 -23.570312 L 10.164062 -6.683594 C 10.164062 -1.921875 7.523438 -3.042969 7.523438 -1.121094 C 7.523438 -0.28125 8.164062 0 9.765625 0 L 16.128906 0 C 17.808594 0 18.367188 -0.28125 18.367188 -1.121094 C 18.367188 -3.042969 15.808594 -1.921875 15.808594 -6.683594 Z M 15.808594 -23.570312 "/></g></g></g><g fill="#000000" fill-opacity="1"><g transform="translate(589.363998, 618.642082)"><g><path d="M 6.476562 0.222656 C 9.417969 0.222656 11.707031 -1.566406 12.265625 -4.285156 L 9.640625 -4.285156 C 9.179688 -3.007812 7.996094 -2.191406 6.523438 -2.191406 C 4.621094 -2.191406 3.277344 -3.582031 3.277344 -5.597656 C 3.277344 -7.613281 4.636719 -9.003906 6.539062 -9.003906 C 7.964844 -9.003906 9.128906 -8.234375 9.5625 -7.003906 L 12.183594 -7.003906 C 11.546875 -9.691406 9.308594 -11.417969 6.460938 -11.417969 C 3.070312 -11.417969 0.6875 -9.019531 0.6875 -5.597656 C 0.6875 -2.175781 3.070312 0.222656 6.476562 0.222656 Z M 6.476562 0.222656 "/></g></g></g><g fill="#000000" fill-opacity="1"><g transform="translate(606.074016, 618.642082)"><g><path d="M 0.144531 0 L 2.863281 0 L 3.613281 -1.933594 L 8.058594 -1.933594 L 8.8125 0 L 11.53125 0 L 7.082031 -11.195312 L 4.589844 -11.195312 Z M 4.269531 -3.933594 L 5.835938 -8.027344 L 7.417969 -3.933594 Z M 4.269531 -3.933594 "/></g></g></g><g fill="#000000" fill-opacity="1"><g transform="translate(621.552836, 618.642082)"><g><path d="M 1.34375 0 L 3.871094 0 L 3.871094 -6.75 L 6.589844 -2.765625 L 8.347656 -2.765625 L 11.066406 -6.730469 L 11.066406 0 L 13.59375 0 L 13.59375 -11.195312 L 11.449219 -11.195312 L 7.484375 -5.390625 L 3.503906 -11.195312 L 1.34375 -11.195312 Z M 1.34375 0 "/></g></g></g><g fill="#000000" fill-opacity="1"><g transform="translate(640.293529, 618.642082)"><g><path d="M 1.34375 0 L 8.875 0 L 8.875 -2.160156 L 3.871094 -2.160156 L 3.871094 -4.605469 L 8.265625 -4.605469 L 8.265625 -6.730469 L 3.871094 -6.730469 L 3.871094 -9.050781 L 8.699219 -9.050781 L 8.699219 -11.195312 L 1.34375 -11.195312 Z M 1.34375 0 "/></g></g></g><g fill="#000000" fill-opacity="1"><g transform="translate(653.78964, 618.642082)"><g><path d="M 1.34375 0 L 3.886719 0 L 3.886719 -3.484375 L 5.566406 -3.484375 L 7.5625 0 L 10.507812 0 L 8.1875 -3.886719 C 9.53125 -4.476562 10.3125 -5.691406 10.3125 -7.339844 C 10.3125 -9.722656 8.683594 -11.195312 6.125 -11.195312 L 1.34375 -11.195312 Z M 3.855469 -5.628906 L 3.855469 -9.019531 L 5.789062 -9.019531 C 7.035156 -9.019531 7.738281 -8.410156 7.738281 -7.324219 C 7.738281 -6.238281 7.035156 -5.628906 5.789062 -5.628906 Z M 3.855469 -5.628906 "/></g></g></g><g fill="#000000" fill-opacity="1"><g transform="translate(668.852729, 618.642082)"><g><path d="M 0.144531 0 L 2.863281 0 L 3.613281 -1.933594 L 8.058594 -1.933594 L 8.8125 0 L 11.53125 0 L 7.082031 -11.195312 L 4.589844 -11.195312 Z M 4.269531 -3.933594 L 5.835938 -8.027344 L 7.417969 -3.933594 Z M 4.269531 -3.933594 "/></g></g></g><g fill="#000000" fill-opacity="1"><g transform="translate(684.331547, 618.642082)"><g/></g></g><g fill="#000000" fill-opacity="1"><g transform="translate(691.895525, 618.642082)"><g><path d="M 1.34375 0 L 3.886719 0 L 3.886719 -3.484375 L 5.566406 -3.484375 L 7.5625 0 L 10.507812 0 L 8.1875 -3.886719 C 9.53125 -4.476562 10.3125 -5.691406 10.3125 -7.339844 C 10.3125 -9.722656 8.683594 -11.195312 6.125 -11.195312 L 1.34375 -11.195312 Z M 3.855469 -5.628906 L 3.855469 -9.019531 L 5.789062 -9.019531 C 7.035156 -9.019531 7.738281 -8.410156 7.738281 -7.324219 C 7.738281 -6.238281 7.035156 -5.628906 5.789062 -5.628906 Z M 3.855469 -5.628906 "/></g></g></g><g fill="#000000" fill-opacity="1"><g transform="translate(706.95862, 618.642082)"><g><path d="M 1.34375 0 L 8.875 0 L 8.875 -2.160156 L 3.871094 -2.160156 L 3.871094 -4.605469 L 8.265625 -4.605469 L 8.265625 -6.730469 L 3.871094 -6.730469 L 3.871094 -9.050781 L 8.699219 -9.050781 L 8.699219 -11.195312 L 1.34375 -11.195312 Z M 1.34375 0 "/></g></g></g><g fill="#000000" fill-opacity="1"><g transform="translate(720.454736, 618.642082)"><g><path d="M 1.34375 0 L 3.871094 0 L 3.871094 -6.859375 L 8.8125 0 L 10.96875 0 L 10.96875 -11.195312 L 8.441406 -11.195312 L 8.441406 -4.382812 L 3.503906 -11.195312 L 1.34375 -11.195312 Z M 1.34375 0 "/></g></g></g><g fill="#000000" fill-opacity="1"><g transform="translate(736.573148, 618.642082)"><g><path d="M 4.03125 0 L 6.574219 0 L 6.574219 -8.8125 L 10.121094 -8.8125 L 10.121094 -11.195312 L 0.480469 -11.195312 L 0.480469 -8.8125 L 4.03125 -8.8125 Z M 4.03125 0 "/></g></g></g><g fill="#000000" fill-opacity="1"><g transform="translate(750.980675, 618.642082)"><g><path d="M 0.144531 0 L 2.863281 0 L 3.613281 -1.933594 L 8.058594 -1.933594 L 8.8125 0 L 11.53125 0 L 7.082031 -11.195312 L 4.589844 -11.195312 Z M 4.269531 -3.933594 L 5.835938 -8.027344 L 7.417969 -3.933594 Z M 4.269531 -3.933594 "/></g></g></g><g fill="#000000" fill-opacity="1"><g transform="translate(766.459499, 618.642082)"><g><path d="M 1.34375 0 L 8.777344 0 L 8.777344 -2.382812 L 3.886719 -2.382812 L 3.886719 -11.195312 L 1.34375 -11.195312 Z M 1.34375 0 "/></g></g></g></svg>